<svg id="Capa_1" enable-background="new 0 0 512 512" height="512" viewBox="0 0 512 512" width="512" xmlns="http://www.w3.org/2000/svg"><g><path d="m47.38 0h445.62v512h-445.62z" fill="#eaf4f4"/><path d="m270.19 0h222.81v512h-222.81z" fill="#cae8ea"/><g><g fill="#a7d2db"><path d="m301.204 116.806h97.284v29.942h-97.284z"/><path d="m301.204 241.113h97.284v29.942h-97.284z"/><path d="m301.204 375.229h97.284v29.942h-97.284z"/></g><g fill="#00dc7b"><path d="m255.221 103.814-21.213-21.171-48.518 48.424-22.456-22.413-21.214 21.172 43.67 43.584z"/><path d="m185.49 257.213-22.456-22.413-21.214 21.172 43.67 43.584 69.731-69.596-21.213-21.171z"/><path d="m185.49 383.358-22.457-22.411-21.213 21.171 43.67 43.583 69.731-69.595-21.213-21.171z"/></g></g><g fill="#ffe26f"><path d="m19 327.682h82.765v29.942h-82.765z"/><path d="m19 414.336h82.765v29.942h-82.765z"/><path d="m19 154.374h82.765v29.942h-82.765z"/><path d="m19 241.028h82.765v29.942h-82.765z"/><path d="m19 67.72h82.765v29.942h-82.765z"/></g></g></svg>